<svg width="621" height="10" viewBox="0 0 621 10" fill="none" xmlns="http://www.w3.org/2000/svg">
<path d="M1 4.5C0.723846 4.5 0.5 4.72386 0.5 5C0.5 5.27614 0.723846 5.5 1 5.5V4.5ZM283 4.5L1 4.5V5.5L283 5.5V4.5Z" fill="url(#paint0_linear_818_1516)"/>
<path d="M620 5.5C620.276 5.5 620.5 5.27615 620.5 5C620.5 4.72386 620.276 4.5 620 4.5L620 5.5ZM335 5.5L620 5.5L620 4.5L335 4.5L335 5.5Z" fill="url(#paint1_linear_818_1516)"/>
<path d="M301 1L305 5M309 9L317 1" stroke="#82B4FF" stroke-width="1.5" stroke-linecap="round" stroke-linejoin="round"/>
<defs>
<linearGradient id="paint0_linear_818_1516" x1="283" y1="5.5" x2="1" y2="5.5" gradientUnits="userSpaceOnUse">
<stop stop-color="#82B4FF" stop-opacity="0.62"/>
<stop offset="1" stop-color="#82B4FF" stop-opacity="0"/>
</linearGradient>
<linearGradient id="paint1_linear_818_1516" x1="335" y1="4.5" x2="620" y2="4.5" gradientUnits="userSpaceOnUse">
<stop stop-color="#82B4FF" stop-opacity="0.62"/>
<stop offset="1" stop-color="#82B4FF" stop-opacity="0"/>
</linearGradient>
</defs>
</svg>
