<?xml version="1.0" encoding="UTF-8" standalone="no"?> <!-- Created with Vectornator for iOS (http://vectornator.io/) --><!DOCTYPE svg PUBLIC "-//W3C//DTD SVG 1.1//EN" "http://www.w3.org/Graphics/SVG/1.1/DTD/svg11.dtd">
<svg style="fill-rule:nonzero;clip-rule:evenodd;stroke-linecap:round;stroke-linejoin:round;" xmlns:vectornator="http://vectornator.io" xmlns:xlink="http://www.w3.org/1999/xlink" xmlns="http://www.w3.org/2000/svg" xml:space="preserve" version="1.1" viewBox="0 0 512 512">
<metadata>
<vectornator:setting key="DimensionsVisible" value="1"/>
<vectornator:setting key="PencilOnly" value="0"/>
<vectornator:setting key="SnapToPoints" value="0"/>
<vectornator:setting key="OutlineMode" value="0"/>
<vectornator:setting key="CMYKEnabledKey" value="0"/>
<vectornator:setting key="RulersVisible" value="1"/>
<vectornator:setting key="SnapToEdges" value="0"/>
<vectornator:setting key="GuidesVisible" value="1"/>
<vectornator:setting key="DisplayWhiteBackground" value="0"/>
<vectornator:setting key="doHistoryDisabled" value="0"/>
<vectornator:setting key="SnapToGuides" value="1"/>
<vectornator:setting key="TimeLapseWatermarkDisabled" value="0"/>
<vectornator:setting key="Units" value="Pixels"/>
<vectornator:setting key="DynamicGuides" value="0"/>
<vectornator:setting key="IsolateActiveLayer" value="0"/>
<vectornator:setting key="SnapToGrid" value="0"/>
</metadata>
<defs/>
<g id="Layer 1" vectornator:layerName="Layer 1">
<path d="M190.835+50.763L372.466+232.394C386.071+245.998+386.071+268.056+372.466+281.66L372.466+281.66C358.862+295.264+336.804+295.264+323.2+281.66L141.569+100.029C127.965+86.4246+127.965+64.3674+141.569+50.763L141.569+50.763C155.173+37.1585+177.231+37.1585+190.835+50.763Z" opacity="1" fill="#ffffff"/>
<path d="M190.8+463.237L372.431+281.606C386.035+268.002+386.035+245.944+372.431+232.34L372.431+232.34C358.827+218.736+336.769+218.736+323.165+232.34L141.534+413.971C127.929+427.575+127.929+449.633+141.534+463.237L141.534+463.237C155.138+476.841+177.196+476.841+190.8+463.237Z" opacity="1" fill="#ffffff"/>
</g>
</svg>
