<?xml version="1.0" encoding="UTF-8" standalone="no"?> <!-- Created with Vectornator for iOS (http://vectornator.io/) --><!DOCTYPE svg PUBLIC "-//W3C//DTD SVG 1.1//EN" "http://www.w3.org/Graphics/SVG/1.1/DTD/svg11.dtd">
<svg style="fill-rule:nonzero;clip-rule:evenodd;stroke-linecap:round;stroke-linejoin:round;" xmlns:vectornator="http://vectornator.io" xmlns:xlink="http://www.w3.org/1999/xlink" xmlns="http://www.w3.org/2000/svg" xml:space="preserve" version="1.1" viewBox="0 0 50 50">
<metadata>
<vectornator:setting key="DimensionsVisible" value="1"/>
<vectornator:setting key="PencilOnly" value="0"/>
<vectornator:setting key="SnapToPoints" value="0"/>
<vectornator:setting key="OutlineMode" value="0"/>
<vectornator:setting key="CMYKEnabledKey" value="0"/>
<vectornator:setting key="RulersVisible" value="1"/>
<vectornator:setting key="SnapToEdges" value="0"/>
<vectornator:setting key="GuidesVisible" value="1"/>
<vectornator:setting key="DisplayWhiteBackground" value="0"/>
<vectornator:setting key="doHistoryDisabled" value="0"/>
<vectornator:setting key="SnapToGuides" value="1"/>
<vectornator:setting key="TimeLapseWatermarkDisabled" value="0"/>
<vectornator:setting key="Units" value="Points"/>
<vectornator:setting key="DynamicGuides" value="0"/>
<vectornator:setting key="IsolateActiveLayer" value="0"/>
<vectornator:setting key="SnapToGrid" value="0"/>
</metadata>
<defs/>
<g id="USDC-v3" vectornator:layerName="USDC-v3">
<path d="M5.00068+25.2043C5.00068+14.1586+13.955+5.20427+25.0007+5.20427C36.0464+5.20427+45.0007+14.1586+45.0007+25.2043C45.0007+36.25+36.0464+45.2043+25.0007+45.2043C13.955+45.2043+5.00068+36.25+5.00068+25.2043Z" opacity="1" fill="#ffffff"/>
<path d="M24.9947-2.94118e-05C38.8019-2.94118e-05+49.9947+11.1928+49.9947+25C49.9947+38.8071+38.8019+50+24.9947+50C11.1875+50-0.00529635+38.8071-0.00529635+25C-0.00529635+11.1928+11.1875-2.94118e-05+24.9947-2.94118e-05ZM30.707+7.39644C30.1432+7.21634+29.6823+7.55095+29.6823+8.14281L29.6823+8.14281L29.6823+9.5984C29.6823+9.99527+29.9814+10.4469+30.3539+10.5835C36.3377+12.7752+40.6197+18.5267+40.6197+25.2605C40.6197+31.9941+36.3377+37.7456+30.3539+39.9373C29.9453+40.087+29.6823+40.4872+29.6823+40.9225L29.6823+40.9225L29.6823+42.378C29.6823+42.9698+30.1432+43.3045+30.707+43.1244C38.2689+40.7083+43.7447+33.6239+43.7447+25.2605C43.7447+16.8969+38.2689+9.81252+30.707+7.39644ZM20.3073+8.14281C20.3073+7.55095+19.8463+7.21634+19.2825+7.39644C11.7205+9.81252+6.2447+16.8969+6.2447+25.2605C6.2447+33.6239+11.7205+40.7083+19.2825+43.1244C19.8463+43.3045+20.3073+42.9698+20.3073+42.378L20.3073+42.378L20.3073+40.9225C20.3073+40.5256+20.0081+40.0738+19.6355+39.9373C13.6518+37.7456+9.3697+31.9941+9.3697+25.2605C9.3697+18.5267+13.6518+12.7752+19.6355+10.5835C20.0081+10.4469+20.3073+9.99527+20.3073+9.5984L20.3073+9.5984L20.3073+8.14281ZM25.776+12.7605L24.2135+12.7605C23.7821+12.7605+23.4323+13.1102+23.4323+13.5416L23.4323+13.5416L23.4323+15.962C20.3347+16.4024+18.3323+18.4638+18.3323+21.1083C18.3323+24.5313+20.4016+25.8596+24.7693+26.4473C27.7324+26.9327+28.5759+27.5709+28.5759+29.2572C28.5759+30.943+27.1447+32.067+25.1274+32.067C22.3995+32.067+21.5019+30.8734+21.1708+29.3284C21.0924+28.9624+20.7789+28.6949+20.4046+28.6949L20.4046+28.6949L18.6224+28.6949C18.1735+28.6949+17.8225+29.0992+17.8997+29.5414C18.3535+32.1419+20.0236+34.05+23.4323+34.5124L23.4323+34.5124L23.4323+36.9792C23.4323+37.4107+23.7821+37.7605+24.2135+37.7605L24.2135+37.7605L25.776+37.7605C26.2074+37.7605+26.5573+37.4107+26.5573+36.9792L26.5573+36.9792L26.5573+34.5111C29.784+33.9986+31.8456+31.7523+31.8456+28.976C31.8456+25.3233+29.623+24.0969+25.3312+23.5097C22.1637+23.0498+21.5511+22.3088+21.5511+20.8271C21.5511+19.4225+22.6236+18.4259+24.6929+18.4259C26.5646+18.4259+27.641+19.0791+28.0857+20.5854C28.1849+20.9215+28.4857+21.1592+28.8363+21.1592L28.8363+21.1592L30.4798+21.1592C30.938+21.1592+31.2948+20.738+31.197+20.2902C30.6767+17.9098+29.0724+16.4813+26.5573+16.0308L26.5573+16.0308L26.5573+13.5416C26.5573+13.1102+26.2074+12.7605+25.776+12.7605L25.776+12.7605Z" opacity="1" fill="#2775ca"/>
</g>
</svg>
